Coordinates
version=1
nRows=20
nColumns=38
inDegrees=no

Units are S.I. units (second, meters, Newtons, ...)
If the header above contains a line with 'inDegrees', this indicates whether rotational values are in degrees (yes) or radians (no).

endheader
time	pelvis_tilt	pelvis_list	pelvis_rotation	pelvis_tx	pelvis_ty	pelvis_tz	hip_flexion_r	hip_adduction_r	hip_rotation_r	knee_angle_r	ankle_angle_r	subtalar_angle_r	mtp_angle_r	hip_flexion_l	hip_adduction_l	hip_rotation_l	knee_angle_l	ankle_angle_l	subtalar_angle_l	mtp_angle_l	lumbar_extension	lumbar_bending	lumbar_rotation	arm_flex_r	arm_add_r	arm_rot_r	elbow_flex_r	pro_sup_r	wrist_flex_r	wrist_dev_r	arm_flex_l	arm_add_l	arm_rot_l	elbow_flex_l	pro_sup_l	wrist_flex_l	wrist_dev_l
60	2.98142	1.42643	-1.28405	0.616675	-0.0400633	0.946929	-0.14249	0.00764988	-0.162092	0.230279	-0.379487	0	0	-0.236062	-0.048696	0.0490941	0.0562379	-0.380411	0	0	-0.245256	0.0848023	-0.266306	0.418844	-0.306794	1.15458	0.505119	0.899555	0	0	-0.00369862	-0.43605	0.456545	0.807279	1.15275	0	0
60.01	2.98219	1.42689	-1.28445	0.616555	-0.040358	0.946909	-0.140213	0.00654652	-0.16184	0.233209	-0.378377	0	0	-0.233356	-0.0482058	0.0476778	0.0598457	-0.378768	0	0	-0.24633	0.0849506	-0.266549	0.419761	-0.307547	1.15623	0.505647	0.897515	0	0	-0.00309263	-0.435775	0.455629	0.806562	1.15145	0	0
60.02	2.98255	1.42796	-1.28432	0.616452	-0.0406855	0.946847	-0.136693	0.00584504	-0.161536	0.237158	-0.376485	0	0	-0.22942	-0.0476098	0.0460971	0.0644353	-0.376496	0	0	-0.246817	0.0850658	-0.267144	0.420818	-0.307907	1.15789	0.505584	0.894731	0	0	-0.00268954	-0.435309	0.454157	0.805472	1.14916	0	0
60.03	2.98346	1.42948	-1.28481	0.616371	-0.0410452	0.946702	-0.132558	0.0049593	-0.161133	0.241799	-0.374411	0	0	-0.224548	-0.0468404	0.0443359	0.0699491	-0.373746	0	0	-0.246855	0.0849568	-0.267757	0.421848	-0.308364	1.16001	0.505732	0.892067	0	0	-0.00241584	-0.434947	0.452647	0.804437	1.14706	0	0
60.04	2.98472	1.4312	-1.28584	0.616296	-0.0414688	0.946488	-0.12786	0.00364733	-0.160609	0.247047	-0.372647	0	0	-0.219041	-0.0459129	0.0423365	0.0762986	-0.370663	0	0	-0.246847	0.0846931	-0.26812	0.422841	-0.308973	1.16191	0.506096	0.888984	0	0	-0.00214228	-0.434884	0.451806	0.803522	1.14637	0	0
60.05	2.98316	1.43236	-1.28411	0.61618	-0.0419767	0.946352	-0.122537	0.00209696	-0.160287	0.252784	-0.371237	0	0	-0.213555	-0.0454912	0.0400509	0.0834266	-0.36723	0	0	-0.24766	0.085138	-0.268331	0.424087	-0.309369	1.16257	0.505702	0.884644	0	0	-0.00154211	-0.434624	0.450924	0.802427	1.14505	0	0
60.06	2.97851	1.4334	-1.27921	0.616039	-0.0425276	0.946276	-0.116565	0.000340573	-0.160655	0.259405	-0.368666	0	0	-0.207629	-0.0455562	0.0376226	0.0913601	-0.363453	0	0	-0.248709	0.0860698	-0.268481	0.425493	-0.309806	1.16361	0.505006	0.880478	0	0	-0.000688588	-0.434083	0.449907	0.800961	1.14299	0	0
60.07	2.98004	1.43655	-1.28081	0.616088	-0.0429949	0.945873	-0.109731	-0.000368966	-0.160542	0.26801	-0.363015	0	0	-0.199568	-0.0443436	0.0350853	0.0999969	-0.359073	0	0	-0.247424	0.0850643	-0.268626	0.426347	-0.310027	1.16571	0.504477	0.876908	0	0	-0.000844482	-0.434178	0.44856	0.800172	1.14036	0	0
60.08	2.98101	1.43997	-1.28233	0.616188	-0.0435524	0.945423	-0.100393	-0.000900241	-0.159144	0.277794	-0.358753	0	0	-0.190902	-0.0430303	0.0322047	0.109119	-0.3546	0	0	-0.246289	0.0840085	-0.268346	0.427517	-0.310488	1.16851	0.504304	0.873639	0	0	-0.00108712	-0.434367	0.446884	0.799685	1.13789	0	0
60.09	2.98	1.44237	-1.28179	0.616227	-0.0441851	0.945086	-0.0920654	-0.00219954	-0.158155	0.287025	-0.355978	0	0	-0.182782	-0.0422428	0.0287733	0.11891	-0.350301	0	0	-0.246458	0.0836987	-0.268047	0.429063	-0.311242	1.17144	0.504362	0.870311	0	0	-0.0010635	-0.434234	0.444765	0.798971	1.13541	0	0
60.1	2.97769	1.44443	-1.27983	0.616234	-0.0448745	0.944794	-0.0841163	-0.00320997	-0.156787	0.295933	-0.353366	0	0	-0.17458	-0.0417626	0.0252461	0.129266	-0.345999	0	0	-0.247116	0.0837574	-0.267961	0.43088	-0.312008	1.1742	0.504307	0.866722	0	0	-0.00109772	-0.433821	0.441953	0.798074	1.13251	0	0
60.11	2.97441	1.44622	-1.27687	0.61623	-0.0456283	0.944537	-0.0766598	-0.00382542	-0.154886	0.304413	-0.350645	0	0	-0.166265	-0.0414696	0.0215105	0.140114	-0.341544	0	0	-0.248273	0.0840673	-0.268063	0.433081	-0.312765	1.17705	0.504162	0.863013	0	0	-0.00114852	-0.433547	0.439269	0.797231	1.12969	0	0
60.12	2.97157	1.44772	-1.27425	0.616213	-0.0464248	0.94429	-0.0694989	-0.00459556	-0.153123	0.313301	-0.347927	0	0	-0.157983	-0.0412151	0.0178006	0.15142	-0.336865	0	0	-0.249845	0.0844982	-0.268358	0.43571	-0.313231	1.18093	0.503375	0.859891	0	0	-0.00115099	-0.433436	0.436928	0.796425	1.12683	0	0
60.13	2.96743	1.44938	-1.27042	0.616219	-0.0472431	0.944009	-0.0623951	-0.00525405	-0.150749	0.321706	-0.345264	0	0	-0.149289	-0.0411231	0.0145189	0.163088	-0.332064	0	0	-0.251248	0.0850102	-0.26871	0.438471	-0.313562	1.18557	0.502235	0.857085	0	0	-0.00126165	-0.433355	0.434616	0.795582	1.12346	0	0
60.14	2.96142	1.45154	-1.26487	0.616292	-0.0480637	0.943635	-0.0548472	-0.00551795	-0.147543	0.32951	-0.342527	0	0	-0.139925	-0.0411227	0.012195	0.174987	-0.327325	0	0	-0.252127	0.0854867	-0.269091	0.441098	-0.314015	1.19001	0.501351	0.853942	0	0	-0.00180257	-0.433373	0.431919	0.794882	1.11971	0	0
60.15	2.95546	1.45356	-1.25943	0.616362	-0.0489624	0.943252	-0.0473349	-0.00563849	-0.144039	0.337256	-0.339686	0	0	-0.130382	-0.0411496	0.0098777	0.187331	-0.322611	0	0	-0.253403	0.0860026	-0.2695	0.443826	-0.314537	1.19366	0.500722	0.850105	0	0	-0.00243732	-0.433583	0.429386	0.794478	1.11708	0	0
60.16	2.95084	1.45536	-1.25548	0.616446	-0.0499287	0.942882	-0.0391394	-0.00628233	-0.141784	0.347139	-0.336809	0	0	-0.121046	-0.0410726	0.00761658	0.199692	-0.318035	0	0	-0.255293	0.0864179	-0.269638	0.446635	-0.315048	1.19722	0.500031	0.846466	0	0	-0.00265295	-0.433849	0.426938	0.794159	1.11467	0	0
60.17	2.94819	1.45703	-1.25335	0.616525	-0.0509346	0.942514	-0.0313462	-0.0071809	-0.140169	0.356285	-0.334312	0	0	-0.11203	-0.0408137	0.00588147	0.211599	-0.31385	0	0	-0.257531	0.0866937	-0.269827	0.449445	-0.3155	1.20037	0.499149	0.842745	0	0	-0.00265464	-0.434229	0.424901	0.793675	1.11282	0	0
60.18	2.94449	1.45931	-1.25017	0.616616	-0.0519575	0.942039	-0.0223378	-0.00831879	-0.139482	0.366517	-0.331167	0	0	-0.101669	-0.0406653	0.00300353	0.225099	-0.308587	0	0	-0.259126	0.086875	-0.270318	0.452314	-0.315972	1.20399	0.498297	0.837641	0	0	-0.00298611	-0.434609	0.422504	0.793345	1.11007	0	0
60.19	2.93808	1.46143	-1.24415	0.616744	-0.0530143	0.941531	-0.0131863	-0.00928553	-0.139677	0.377425	-0.328048	0	0	-0.0911045	-0.0409609	6.48775e-05	0.239027	-0.30315	0	0	-0.260993	0.0873529	-0.270746	0.455146	-0.316393	1.2075	0.497374	0.832408	0	0	-0.00328128	-0.435082	0.42027	0.792905	1.10714	0	0
